<?xml version="1.0" encoding="UTF-8"?>
<svg xmlns="http://www.w3.org/2000/svg" xmlns:xlink="http://www.w3.org/1999/xlink" width="48pt" height="48pt" viewBox="0 0 48 48" version="1.1">
<g id="surface1513417">
<path style=" stroke:none;fill-rule:nonzero;fill:rgb(0%,0%,0%);fill-opacity:1;" d="M 24.140625 48.140625 C 10.886719 48.140625 0.140625 37.394531 0.140625 24.140625 C 0.140625 10.886719 10.886719 0.140625 24.140625 0.140625 C 37.394531 0.140625 48.140625 10.886719 48.140625 24.140625 C 48.140625 37.394531 37.394531 48.140625 24.140625 48.140625 Z M 24.140625 48.140625 "/>
<path style=" stroke:none;fill-rule:nonzero;fill:rgb(100%,100%,100%);fill-opacity:1;" d="M 37.601562 24 C 37.601562 31.519531 31.519531 37.601562 24 37.601562 C 16.480469 37.601562 10.398438 31.519531 10.398438 24 C 10.398438 16.480469 16.480469 10.398438 24 10.398438 C 31.519531 10.398438 37.601562 16.480469 37.601562 24 Z M 37.601562 24 "/>
<path style=" stroke:none;fill-rule:nonzero;fill:rgb(0%,0%,0%);fill-opacity:1;" d="M 21.601562 37.601562 L 21.601562 33.199219 C 21.601562 32.960938 21.761719 32.800781 22 32.800781 C 22.238281 32.800781 22.398438 32.960938 22.398438 33.199219 L 22.398438 37.601562 L 24 37.601562 L 24 32.398438 C 24 32.160156 24.160156 32 24.398438 32 C 24.640625 32 24.800781 32.160156 24.800781 32.398438 L 24.800781 37.601562 L 26.398438 37.601562 L 26.398438 33.199219 C 26.398438 32.960938 26.558594 32.800781 26.800781 32.800781 C 27.039062 32.800781 27.199219 32.960938 27.199219 33.199219 L 27.199219 37.601562 L 28.640625 37.601562 C 28.800781 37.359375 28.800781 37.121094 28.800781 36.71875 L 28.800781 33.601562 C 28.800781 31.839844 27.28125 29.441406 25.359375 29.441406 L 23.359375 29.441406 C 21.519531 29.441406 19.921875 31.921875 19.921875 33.601562 L 19.921875 36.71875 C 19.921875 37.039062 20 37.359375 20.078125 37.601562 Z M 36.878906 25.921875 C 36.878906 25.921875 35.839844 25.601562 34.960938 25.601562 L 34.878906 25.601562 C 34 25.601562 32.558594 25.839844 32.558594 25.839844 C 32.480469 25.839844 32.480469 25.839844 32.480469 25.761719 C 32.480469 25.679688 32.480469 25.679688 32.558594 25.679688 C 32.640625 25.679688 34.160156 25.441406 35.039062 25.441406 C 35.921875 25.441406 36.960938 25.761719 37.039062 25.761719 C 37.121094 25.761719 37.121094 25.839844 37.121094 25.921875 C 36.960938 25.839844 36.960938 25.921875 36.878906 25.921875 Z M 36.640625 26.558594 C 36.640625 26.558594 35.519531 26.238281 34.558594 26.238281 C 33.839844 26.238281 32.160156 26.398438 32.078125 26.398438 C 32 26.398438 32 26.398438 32 26.320312 C 32 26.238281 32 26.238281 32.078125 26.238281 C 32.160156 26.238281 33.839844 26.078125 34.558594 26.078125 C 35.601562 26.078125 36.640625 26.398438 36.640625 26.398438 C 36.71875 26.398438 36.71875 26.480469 36.71875 26.558594 C 36.71875 26.480469 36.71875 26.558594 36.640625 26.558594 Z M 11.039062 25.921875 C 10.960938 25.921875 10.960938 25.921875 10.960938 25.839844 C 10.960938 25.761719 10.960938 25.761719 11.039062 25.679688 C 11.679688 25.519531 12.960938 25.28125 13.679688 25.28125 C 14.320312 25.28125 16.480469 25.441406 16.558594 25.441406 C 16.640625 25.441406 16.640625 25.519531 16.640625 25.519531 C 16.640625 25.601562 16.558594 25.601562 16.558594 25.601562 C 16.558594 25.601562 14.398438 25.441406 13.761719 25.441406 C 12.878906 25.601562 11.679688 25.761719 11.039062 25.921875 Z M 11.359375 27.121094 C 11.359375 27.121094 11.28125 27.121094 11.28125 27.039062 C 11.28125 26.960938 11.28125 26.960938 11.28125 26.878906 C 11.359375 26.878906 12.398438 26.238281 13.601562 26.078125 C 14.640625 25.921875 16.800781 26.160156 16.960938 26.160156 C 17.039062 26.160156 17.039062 26.238281 17.039062 26.238281 C 17.039062 26.320312 16.960938 26.320312 16.960938 26.320312 C 16.960938 26.320312 14.71875 26.078125 13.679688 26.238281 C 12.480469 26.480469 11.359375 27.121094 11.359375 27.121094 Z M 11.359375 27.121094 "/>
<path style=" stroke:none;fill-rule:nonzero;fill:rgb(0%,0%,0%);fill-opacity:1;" d="M 16.160156 23.601562 C 16.160156 20.078125 19.839844 16.800781 24.398438 16.800781 C 28.960938 16.800781 32.640625 20 32.640625 23.601562 C 32.640625 27.199219 30 29.601562 24.398438 29.601562 C 18.800781 29.601562 16.160156 27.121094 16.160156 23.601562 Z M 16.160156 23.601562 "/>
<path style=" stroke:none;fill-rule:nonzero;fill:rgb(0%,0%,0%);fill-opacity:1;" d="M 27.679688 17.839844 C 27.679688 17.839844 29.039062 16 31.519531 16 C 32.480469 16.960938 31.839844 19.839844 31.519531 20.640625 Z M 21.121094 17.839844 C 21.121094 17.839844 19.761719 16 17.28125 16 C 16.320312 16.960938 16.960938 19.839844 17.28125 20.640625 Z M 20.878906 33.519531 C 20.878906 33.519531 19.039062 33.519531 18.640625 33.519531 C 17.679688 33.519531 16.800781 33.121094 16.398438 32.320312 C 15.921875 31.441406 15.519531 30.480469 14.320312 29.679688 C 14.078125 29.519531 14.238281 29.359375 14.640625 29.359375 C 15.039062 29.441406 15.761719 29.519531 16.320312 30.238281 C 16.878906 30.960938 17.519531 31.839844 18.558594 31.839844 C 19.601562 31.839844 20.71875 31.839844 21.359375 31.121094 Z M 20.878906 33.519531 "/>
<path style=" stroke:none;fill-rule:nonzero;fill:rgb(0%,0%,0%);fill-opacity:1;" d="M 24 8 C 15.199219 8 8 15.199219 8 24 C 8 32.800781 15.199219 40 24 40 C 32.800781 40 40 32.800781 40 24 C 40 15.199219 32.800781 8 24 8 Z M 24 36.800781 C 16.960938 36.800781 11.199219 31.039062 11.199219 24 C 11.199219 16.960938 16.960938 11.199219 24 11.199219 C 31.039062 11.199219 36.800781 16.960938 36.800781 24 C 36.800781 31.039062 31.039062 36.800781 24 36.800781 Z M 24 36.800781 "/>
</g>
</svg>
